<svg xmlns="http://www.w3.org/2000/svg" viewBox="0 0 1200 900" role="img" aria-labelledby="title desc">
  <title id="title">勉強するのらネコ</title>
  <desc id="desc">路地裏の小さな灯りの下で、のらネコが本とノートに向かって勉強しているイラスト。</desc>
  <defs>
    <linearGradient id="sky" x1="0" x2="1" y1="0" y2="1">
      <stop offset="0" stop-color="#253146"/>
      <stop offset="0.55" stop-color="#5f4d45"/>
      <stop offset="1" stop-color="#b78a5b"/>
    </linearGradient>
    <radialGradient id="lampGlow" cx="70%" cy="32%" r="45%">
      <stop offset="0" stop-color="#fff1b8" stop-opacity="0.9"/>
      <stop offset="0.4" stop-color="#f5c16d" stop-opacity="0.4"/>
      <stop offset="1" stop-color="#f5c16d" stop-opacity="0"/>
    </radialGradient>
    <linearGradient id="cardboard" x1="0" x2="1" y1="0" y2="1">
      <stop offset="0" stop-color="#8b6547"/>
      <stop offset="1" stop-color="#50392e"/>
    </linearGradient>
    <filter id="softShadow" x="-20%" y="-20%" width="140%" height="140%">
      <feDropShadow dx="0" dy="18" stdDeviation="18" flood-color="#1c1715" flood-opacity="0.35"/>
    </filter>
  </defs>

  <rect width="1200" height="900" fill="url(#sky)"/>
  <rect width="1200" height="900" fill="url(#lampGlow)"/>

  <g opacity="0.34">
    <circle cx="145" cy="142" r="9" fill="#f5d58d"/>
    <circle cx="176" cy="126" r="3" fill="#f5d58d"/>
    <circle cx="1008" cy="170" r="4" fill="#f5d58d"/>
    <circle cx="1064" cy="126" r="7" fill="#f5d58d"/>
    <rect x="84" y="220" width="130" height="430" rx="4" fill="#1f2737" opacity="0.42"/>
    <rect x="982" y="250" width="112" height="380" rx="4" fill="#2c2b35" opacity="0.3"/>
  </g>

  <path d="M0 670 C145 628 263 682 404 645 C594 594 733 672 898 628 C1038 590 1124 634 1200 604 L1200 900 L0 900 Z" fill="#342922" opacity="0.9"/>

  <g filter="url(#softShadow)">
    <path d="M180 360 h470 c40 0 72 32 72 72 v292 H140 V400 c0-22 18-40 40-40Z" fill="url(#cardboard)"/>
    <path d="M168 356 h508 l-54-100 H228 Z" fill="#5b4034"/>
    <path d="M225 266 h394 l-20-44 H245 Z" fill="#7b5945"/>
    <path d="M230 384 h420 v298 H230 Z" fill="#2e251f" opacity="0.38"/>
    <path d="M187 360 l48-96 h40 l-42 96Z" fill="#a47a57" opacity="0.88"/>
    <path d="M636 360 l-46-96 h-44 l42 96Z" fill="#6e4d3d" opacity="0.92"/>
    <path d="M235 607 c55-38 121-34 174 4 72-46 162-20 195 40 12 21-2 48-28 48H258 c-52 0-66-63-23-92Z" fill="#746073" opacity="0.78"/>
  </g>

  <g transform="translate(745 170)">
    <path d="M128 52 c64 25 98 68 102 136" fill="none" stroke="#3a2b25" stroke-width="19" stroke-linecap="round"/>
    <path d="M198 162 c72-30 146 2 172 72 13 35-7 75-44 88-76 28-169-11-202-86-14-32 14-61 74-74Z" fill="#3a2b25"/>
    <ellipse cx="254" cy="248" rx="99" ry="51" fill="#f5d58d" opacity="0.78"/>
    <ellipse cx="258" cy="232" rx="98" ry="48" fill="#2f2520"/>
    <ellipse cx="258" cy="232" rx="68" ry="30" fill="#fff1b8"/>
  </g>

  <g transform="translate(345 394)" filter="url(#softShadow)">
    <path d="M148 137 C120 74 148 20 210 10 C259 2 296 23 321 68 C344 110 331 172 294 202 C244 242 173 199 148 137Z" fill="#f0e0c8"/>
    <path d="M175 60 L128 18 L138 105 Z" fill="#f0e0c8"/>
    <path d="M287 60 L339 18 L327 106 Z" fill="#f0e0c8"/>
    <path d="M151 36 L138 92 L176 70 Z" fill="#c98376" opacity="0.64"/>
    <path d="M320 36 L326 92 L288 70 Z" fill="#c98376" opacity="0.64"/>
    <path d="M166 39 c42 4 90 6 148 0 18 23 26 53 22 82-64-10-125-10-184 2-8-33-3-61 14-84Z" fill="#6c574b"/>
    <path d="M188 44 c-16 36-19 82-10 138" stroke="#8b6b58" stroke-width="13" stroke-linecap="round" opacity="0.62"/>
    <path d="M270 42 c20 42 21 89 2 144" stroke="#8b6b58" stroke-width="12" stroke-linecap="round" opacity="0.58"/>
    <ellipse cx="203" cy="117" rx="17" ry="21" fill="#3a3028"/>
    <ellipse cx="277" cy="117" rx="17" ry="21" fill="#3a3028"/>
    <circle cx="208" cy="109" r="5" fill="#fff4d7"/>
    <circle cx="282" cy="109" r="5" fill="#fff4d7"/>
    <path d="M236 141 l15 0 l-8 10Z" fill="#b36f67"/>
    <path d="M242 152 c-11 14-29 20-49 16" fill="none" stroke="#6b5145" stroke-width="4" stroke-linecap="round"/>
    <path d="M244 152 c12 14 31 20 50 16" fill="none" stroke="#6b5145" stroke-width="4" stroke-linecap="round"/>
    <path d="M134 202 c-46 22-73 64-73 117 0 91 74 135 175 135 105 0 183-49 177-140-4-62-39-99-87-118-44 43-135 46-192 6Z" fill="#ead9c4"/>
    <path d="M104 322 c45 23 89 26 132 8" fill="none" stroke="#c5ad93" stroke-width="15" stroke-linecap="round" opacity="0.75"/>
    <path d="M342 315 c-45 28-87 31-128 12" fill="none" stroke="#c5ad93" stroke-width="15" stroke-linecap="round" opacity="0.65"/>
    <path d="M64 300 c-37 42-54 99-30 127 26 30 85-13 98-80" fill="none" stroke="#ead9c4" stroke-width="39" stroke-linecap="round"/>
  </g>

  <g filter="url(#softShadow)">
    <path d="M305 645 c110-28 202-16 275 34 v128 c-78-52-168-64-275-34Z" fill="#f5ecd7"/>
    <path d="M580 679 c105-46 201-54 292-24 v128 c-94-30-191-23-292 24Z" fill="#fff3d8"/>
    <path d="M580 679 v128" stroke="#9d8566" stroke-width="5"/>
    <path d="M343 692 c68-13 126-7 183 22" fill="none" stroke="#a58e72" stroke-width="6" stroke-linecap="round" opacity="0.75"/>
    <path d="M342 727 c64-13 126-6 183 20" fill="none" stroke="#a58e72" stroke-width="5" stroke-linecap="round" opacity="0.62"/>
    <path d="M625 704 c66-26 130-30 194-12" fill="none" stroke="#a58e72" stroke-width="6" stroke-linecap="round" opacity="0.7"/>
    <path d="M625 740 c68-23 132-26 194-9" fill="none" stroke="#a58e72" stroke-width="5" stroke-linecap="round" opacity="0.6"/>
    <path d="M530 622 l78 36" stroke="#d18b3e" stroke-width="18" stroke-linecap="round"/>
    <path d="M596 651 l22 10" stroke="#3f3029" stroke-width="18" stroke-linecap="round"/>
  </g>

  <g transform="translate(82 632)" filter="url(#softShadow)">
    <rect x="0" y="132" width="198" height="44" rx="4" fill="#9d4d46"/>
    <rect x="16" y="88" width="218" height="48" rx="4" fill="#637c57"/>
    <rect x="8" y="43" width="214" height="50" rx="4" fill="#a87b4c"/>
    <rect x="30" y="0" width="206" height="48" rx="4" fill="#516f89"/>
    <path d="M10 162 h172" stroke="#f1dbc3" stroke-width="8" opacity="0.78"/>
    <path d="M28 118 h188" stroke="#f1dbc3" stroke-width="8" opacity="0.72"/>
    <path d="M21 74 h182" stroke="#f1dbc3" stroke-width="8" opacity="0.68"/>
    <path d="M44 31 h176" stroke="#f1dbc3" stroke-width="8" opacity="0.72"/>
  </g>

  <g opacity="0.72">
    <path d="M956 738 c41-44 90-57 144-39" fill="none" stroke="#5e7a50" stroke-width="8" stroke-linecap="round"/>
    <ellipse cx="987" cy="719" rx="24" ry="10" fill="#7ea166" transform="rotate(-34 987 719)"/>
    <ellipse cx="1046" cy="684" rx="24" ry="10" fill="#8bad6b" transform="rotate(-18 1046 684)"/>
    <ellipse cx="1075" cy="714" rx="23" ry="10" fill="#78985f" transform="rotate(18 1075 714)"/>
  </g>
</svg>
